<svg width="28" height="30" viewBox="0 0 28 30" fill="none" xmlns="http://www.w3.org/2000/svg">
<path d="M7.58333 1.875C6.88714 1.875 6.21946 2.17132 5.72718 2.69876C5.2349 3.22621 4.95833 3.94158 4.95833 4.6875C4.95833 5.43342 5.2349 6.14879 5.72718 6.67624C6.21946 7.20368 6.88714 7.5 7.58333 7.5C8.27953 7.5 8.9472 7.20368 9.43949 6.67624C9.93177 6.14879 10.2083 5.43342 10.2083 4.6875C10.2083 3.94158 9.93177 3.22621 9.43949 2.69876C8.9472 2.17132 8.27953 1.875 7.58333 1.875ZM3.20833 4.6875C3.20833 3.4443 3.66927 2.25201 4.48974 1.37294C5.31021 0.49386 6.42301 0 7.58333 0C8.74366 0 9.85645 0.49386 10.6769 1.37294C11.4974 2.25201 11.9583 3.4443 11.9583 4.6875C11.9583 5.9307 11.4974 7.12299 10.6769 8.00206C9.85645 8.88114 8.74366 9.375 7.58333 9.375C6.42301 9.375 5.31021 8.88114 4.48974 8.00206C3.66927 7.12299 3.20833 5.9307 3.20833 4.6875ZM0 13.7275C0 12.3588 1.03483 11.25 2.31233 11.25H8.84567C8.62441 11.8486 8.49594 12.482 8.46533 13.125H2.31233C2.16319 13.125 2.02016 13.1885 1.9147 13.3015C1.80925 13.4145 1.75 13.5677 1.75 13.7275V14.2188C1.75 14.4338 1.75233 15.735 2.45817 16.965C3.06483 18.02 4.27117 19.1638 6.83667 19.3488C6.24341 19.7617 5.78123 20.3581 5.51133 21.0588C3.17217 20.595 1.76983 19.3438 0.968333 17.9463C-5.90026e-08 16.2625 0 14.5225 0 14.2225V13.7275ZM19.1532 11.25C19.3702 11.835 19.5032 12.4662 19.5335 13.125H25.6877C25.998 13.125 26.25 13.395 26.25 13.7275V14.2188C26.25 14.4338 26.2477 15.735 25.5407 16.965C24.9352 18.02 23.73 19.1638 21.1633 19.3488C21.7525 19.7588 22.218 20.355 22.4887 21.0588C24.8278 20.595 26.2302 19.3438 27.0317 17.9463C28 16.2613 28 14.5212 28 14.2212V13.7275C28 13.0704 27.7564 12.4403 27.3227 11.9756C26.8891 11.511 26.3009 11.25 25.6877 11.25H19.1532ZM20.4167 1.875C19.7205 1.875 19.0528 2.17132 18.5605 2.69876C18.0682 3.22621 17.7917 3.94158 17.7917 4.6875C17.7917 5.43342 18.0682 6.14879 18.5605 6.67624C19.0528 7.20368 19.7205 7.5 20.4167 7.5C21.1129 7.5 21.7805 7.20368 22.2728 6.67624C22.7651 6.14879 23.0417 5.43342 23.0417 4.6875C23.0417 3.94158 22.7651 3.22621 22.2728 2.69876C21.7805 2.17132 21.1129 1.875 20.4167 1.875ZM16.0417 4.6875C16.0417 3.4443 16.5026 2.25201 17.3231 1.37294C18.1435 0.49386 19.2563 0 20.4167 0C21.577 0 22.6898 0.49386 23.5103 1.37294C24.3307 2.25201 24.7917 3.4443 24.7917 4.6875C24.7917 5.9307 24.3307 7.12299 23.5103 8.00206C22.6898 8.88114 21.577 9.375 20.4167 9.375C19.2563 9.375 18.1435 8.88114 17.3231 8.00206C16.5026 7.12299 16.0417 5.9307 16.0417 4.6875ZM6.41667 22.4775C6.41667 21.1087 7.4515 20 8.729 20H19.271C20.5485 20 21.5833 21.1087 21.5833 22.4775V22.9713C21.5833 23.2713 21.5833 25.0112 20.615 26.6962C19.6 28.4662 17.6237 30 14 30C10.3763 30 8.4 28.465 7.385 26.6975C6.41667 25.0112 6.41667 23.2725 6.41667 22.9713V22.4775ZM8.729 21.875C8.57986 21.875 8.43683 21.9385 8.33137 22.0515C8.22591 22.1645 8.16667 22.3177 8.16667 22.4775V22.9688C8.16667 23.1838 8.169 24.485 8.87483 25.715C9.5375 26.8675 10.9153 28.125 14 28.125C17.0847 28.125 18.4625 26.8675 19.124 25.715C19.831 24.4863 19.8333 23.1838 19.8333 22.9688V22.4775C19.8333 22.3177 19.7741 22.1645 19.6686 22.0515C19.5632 21.9385 19.4201 21.875 19.271 21.875H8.729ZM11.375 13.4375C11.375 13.0682 11.4429 12.7024 11.5748 12.3612C11.7067 12.02 11.9001 11.7099 12.1438 11.4488C12.3876 11.1876 12.677 10.9804 12.9955 10.8391C13.3139 10.6977 13.6553 10.625 14 10.625C14.3447 10.625 14.6861 10.6977 15.0045 10.8391C15.323 10.9804 15.6124 11.1876 15.8562 11.4488C16.0999 11.7099 16.2933 12.02 16.4252 12.3612C16.5571 12.7024 16.625 13.0682 16.625 13.4375C16.625 14.1834 16.3484 14.8988 15.8562 15.4262C15.3639 15.9537 14.6962 16.25 14 16.25C13.3038 16.25 12.6361 15.9537 12.1438 15.4262C11.6516 14.8988 11.375 14.1834 11.375 13.4375ZM14 8.75C12.8397 8.75 11.7269 9.24386 10.9064 10.1229C10.0859 11.002 9.625 12.1943 9.625 13.4375C9.625 14.6807 10.0859 15.873 10.9064 16.7521C11.7269 17.6311 12.8397 18.125 14 18.125C15.1603 18.125 16.2731 17.6311 17.0936 16.7521C17.9141 15.873 18.375 14.6807 18.375 13.4375C18.375 12.1943 17.9141 11.002 17.0936 10.1229C16.2731 9.24386 15.1603 8.75 14 8.75Z" fill="#5C5C5C"/>
</svg>
